<mxfile host="app.diagrams.net" modified="2021-11-18T12:25:36.780Z" agent="5.0 (Windows NT 10.0; Win64; x64) AppleWebKit/537.36 (KHTML, like Gecko) Chrome/95.0.4638.69 Safari/537.36" etag="05sNA7szBpakxlvx2L3o" version="15.8.2" type="github">
  <diagram id="ismMnRzkhSHvUhvcQDiM" name="Page-1">
    <mxGraphModel dx="782" dy="475" grid="1" gridSize="10" guides="1" tooltips="1" connect="1" arrows="1" fold="1" page="1" pageScale="1" pageWidth="827" pageHeight="1169" math="0" shadow="0">
      <root>
        <mxCell id="0" />
        <mxCell id="1" parent="0" />
        <mxCell id="-jNMCPz4vEddlT_NG2kp-1" value="FinanceAccounts" style="swimlane;fontStyle=0;childLayout=stackLayout;horizontal=1;startSize=26;fillColor=#e0e0e0;horizontalStack=0;resizeParent=1;resizeLast=0;collapsible=1;marginBottom=0;swimlaneFillColor=#ffffff;align=center;" parent="1" vertex="1">
          <mxGeometry x="140" y="80" width="200" height="442" as="geometry" />
        </mxCell>
        <mxCell id="-jNMCPz4vEddlT_NG2kp-2" value="Id" style="shape=partialRectangle;top=0;left=0;right=0;bottom=0;align=left;verticalAlign=top;spacingTop=-2;fillColor=none;spacingLeft=64;spacingRight=4;overflow=hidden;rotatable=0;points=[[0,0.5],[1,0.5]];portConstraint=eastwest;dropTarget=0;" parent="-jNMCPz4vEddlT_NG2kp-1" vertex="1">
          <mxGeometry y="26" width="200" height="26" as="geometry" />
        </mxCell>
        <mxCell id="-jNMCPz4vEddlT_NG2kp-3" value="PK" style="shape=partialRectangle;top=0;left=0;bottom=0;fillColor=none;align=left;verticalAlign=middle;spacingLeft=4;spacingRight=4;overflow=hidden;rotatable=180;points=[];portConstraint=eastwest;part=1;" parent="-jNMCPz4vEddlT_NG2kp-2" vertex="1" connectable="0">
          <mxGeometry width="54" height="26" as="geometry" />
        </mxCell>
        <mxCell id="-jNMCPz4vEddlT_NG2kp-4" value="Name" style="shape=partialRectangle;top=0;left=0;right=0;bottom=0;align=left;verticalAlign=top;spacingTop=-2;fillColor=none;spacingLeft=64;spacingRight=4;overflow=hidden;rotatable=0;points=[[0,0.5],[1,0.5]];portConstraint=eastwest;dropTarget=0;" parent="-jNMCPz4vEddlT_NG2kp-1" vertex="1">
          <mxGeometry y="52" width="200" height="26" as="geometry" />
        </mxCell>
        <mxCell id="-jNMCPz4vEddlT_NG2kp-5" value="" style="shape=partialRectangle;top=0;left=0;bottom=0;fillColor=none;align=left;verticalAlign=middle;spacingLeft=4;spacingRight=4;overflow=hidden;rotatable=180;points=[];portConstraint=eastwest;part=1;" parent="-jNMCPz4vEddlT_NG2kp-4" vertex="1" connectable="0">
          <mxGeometry width="54" height="26" as="geometry" />
        </mxCell>
        <mxCell id="-jNMCPz4vEddlT_NG2kp-6" value="Code" style="shape=partialRectangle;top=0;left=0;right=0;bottom=0;align=left;verticalAlign=top;spacingTop=-2;fillColor=none;spacingLeft=64;spacingRight=4;overflow=hidden;rotatable=0;points=[[0,0.5],[1,0.5]];portConstraint=eastwest;dropTarget=0;" parent="-jNMCPz4vEddlT_NG2kp-1" vertex="1">
          <mxGeometry y="78" width="200" height="26" as="geometry" />
        </mxCell>
        <mxCell id="-jNMCPz4vEddlT_NG2kp-7" value="" style="shape=partialRectangle;top=0;left=0;bottom=0;fillColor=none;align=left;verticalAlign=middle;spacingLeft=4;spacingRight=4;overflow=hidden;rotatable=180;points=[];portConstraint=eastwest;part=1;" parent="-jNMCPz4vEddlT_NG2kp-6" vertex="1" connectable="0">
          <mxGeometry width="54" height="26" as="geometry" />
        </mxCell>
        <mxCell id="-jNMCPz4vEddlT_NG2kp-8" value="Owner" style="shape=partialRectangle;top=0;left=0;right=0;bottom=0;align=left;verticalAlign=top;spacingTop=-2;fillColor=none;spacingLeft=64;spacingRight=4;overflow=hidden;rotatable=0;points=[[0,0.5],[1,0.5]];portConstraint=eastwest;dropTarget=0;" parent="-jNMCPz4vEddlT_NG2kp-1" vertex="1">
          <mxGeometry y="104" width="200" height="26" as="geometry" />
        </mxCell>
        <mxCell id="-jNMCPz4vEddlT_NG2kp-9" value="" style="shape=partialRectangle;top=0;left=0;bottom=0;fillColor=none;align=left;verticalAlign=middle;spacingLeft=4;spacingRight=4;overflow=hidden;rotatable=180;points=[];portConstraint=eastwest;part=1;" parent="-jNMCPz4vEddlT_NG2kp-8" vertex="1" connectable="0">
          <mxGeometry width="54" height="26" as="geometry" />
        </mxCell>
        <mxCell id="-jNMCPz4vEddlT_NG2kp-10" value="Type" style="shape=partialRectangle;top=0;left=0;right=0;bottom=0;align=left;verticalAlign=top;spacingTop=-2;fillColor=none;spacingLeft=64;spacingRight=4;overflow=hidden;rotatable=0;points=[[0,0.5],[1,0.5]];portConstraint=eastwest;dropTarget=0;" parent="-jNMCPz4vEddlT_NG2kp-1" vertex="1">
          <mxGeometry y="130" width="200" height="26" as="geometry" />
        </mxCell>
        <mxCell id="-jNMCPz4vEddlT_NG2kp-11" value="" style="shape=partialRectangle;top=0;left=0;bottom=0;fillColor=none;align=left;verticalAlign=middle;spacingLeft=4;spacingRight=4;overflow=hidden;rotatable=180;points=[];portConstraint=eastwest;part=1;" parent="-jNMCPz4vEddlT_NG2kp-10" vertex="1" connectable="0">
          <mxGeometry width="54" height="26" as="geometry" />
        </mxCell>
        <mxCell id="-jNMCPz4vEddlT_NG2kp-12" value="CountryCode" style="shape=partialRectangle;top=0;left=0;right=0;bottom=0;align=left;verticalAlign=top;spacingTop=-2;fillColor=none;spacingLeft=64;spacingRight=4;overflow=hidden;rotatable=0;points=[[0,0.5],[1,0.5]];portConstraint=eastwest;dropTarget=0;" parent="-jNMCPz4vEddlT_NG2kp-1" vertex="1">
          <mxGeometry y="156" width="200" height="26" as="geometry" />
        </mxCell>
        <mxCell id="-jNMCPz4vEddlT_NG2kp-13" value="" style="shape=partialRectangle;top=0;left=0;bottom=0;fillColor=none;align=left;verticalAlign=middle;spacingLeft=4;spacingRight=4;overflow=hidden;rotatable=180;points=[];portConstraint=eastwest;part=1;" parent="-jNMCPz4vEddlT_NG2kp-12" vertex="1" connectable="0">
          <mxGeometry width="54" height="26" as="geometry" />
        </mxCell>
        <mxCell id="-jNMCPz4vEddlT_NG2kp-14" value="SortOrder" style="shape=partialRectangle;top=0;left=0;right=0;bottom=0;align=left;verticalAlign=top;spacingTop=-2;fillColor=none;spacingLeft=64;spacingRight=4;overflow=hidden;rotatable=0;points=[[0,0.5],[1,0.5]];portConstraint=eastwest;dropTarget=0;" parent="-jNMCPz4vEddlT_NG2kp-1" vertex="1">
          <mxGeometry y="182" width="200" height="26" as="geometry" />
        </mxCell>
        <mxCell id="-jNMCPz4vEddlT_NG2kp-15" value="" style="shape=partialRectangle;top=0;left=0;bottom=0;fillColor=none;align=left;verticalAlign=middle;spacingLeft=4;spacingRight=4;overflow=hidden;rotatable=180;points=[];portConstraint=eastwest;part=1;" parent="-jNMCPz4vEddlT_NG2kp-14" vertex="1" connectable="0">
          <mxGeometry width="54" height="26" as="geometry" />
        </mxCell>
        <mxCell id="-jNMCPz4vEddlT_NG2kp-16" value="IsActive" style="shape=partialRectangle;top=0;left=0;right=0;bottom=0;align=left;verticalAlign=top;spacingTop=-2;fillColor=none;spacingLeft=64;spacingRight=4;overflow=hidden;rotatable=0;points=[[0,0.5],[1,0.5]];portConstraint=eastwest;dropTarget=0;" parent="-jNMCPz4vEddlT_NG2kp-1" vertex="1">
          <mxGeometry y="208" width="200" height="26" as="geometry" />
        </mxCell>
        <mxCell id="-jNMCPz4vEddlT_NG2kp-17" value="" style="shape=partialRectangle;top=0;left=0;bottom=0;fillColor=none;align=left;verticalAlign=middle;spacingLeft=4;spacingRight=4;overflow=hidden;rotatable=180;points=[];portConstraint=eastwest;part=1;" parent="-jNMCPz4vEddlT_NG2kp-16" vertex="1" connectable="0">
          <mxGeometry width="54" height="26" as="geometry" />
        </mxCell>
        <mxCell id="-jNMCPz4vEddlT_NG2kp-18" value="InactiveDate" style="shape=partialRectangle;top=0;left=0;right=0;bottom=0;align=left;verticalAlign=top;spacingTop=-2;fillColor=none;spacingLeft=64;spacingRight=4;overflow=hidden;rotatable=0;points=[[0,0.5],[1,0.5]];portConstraint=eastwest;dropTarget=0;" parent="-jNMCPz4vEddlT_NG2kp-1" vertex="1">
          <mxGeometry y="234" width="200" height="26" as="geometry" />
        </mxCell>
        <mxCell id="-jNMCPz4vEddlT_NG2kp-19" value="" style="shape=partialRectangle;top=0;left=0;bottom=0;fillColor=none;align=left;verticalAlign=middle;spacingLeft=4;spacingRight=4;overflow=hidden;rotatable=180;points=[];portConstraint=eastwest;part=1;" parent="-jNMCPz4vEddlT_NG2kp-18" vertex="1" connectable="0">
          <mxGeometry width="54" height="26" as="geometry" />
        </mxCell>
        <mxCell id="-jNMCPz4vEddlT_NG2kp-20" value="InitAmount" style="shape=partialRectangle;top=0;left=0;right=0;bottom=0;align=left;verticalAlign=top;spacingTop=-2;fillColor=none;spacingLeft=64;spacingRight=4;overflow=hidden;rotatable=0;points=[[0,0.5],[1,0.5]];portConstraint=eastwest;dropTarget=0;" parent="-jNMCPz4vEddlT_NG2kp-1" vertex="1">
          <mxGeometry y="260" width="200" height="26" as="geometry" />
        </mxCell>
        <mxCell id="-jNMCPz4vEddlT_NG2kp-21" value="" style="shape=partialRectangle;top=0;left=0;bottom=0;fillColor=none;align=left;verticalAlign=middle;spacingLeft=4;spacingRight=4;overflow=hidden;rotatable=180;points=[];portConstraint=eastwest;part=1;" parent="-jNMCPz4vEddlT_NG2kp-20" vertex="1" connectable="0">
          <mxGeometry width="54" height="26" as="geometry" />
        </mxCell>
        <mxCell id="-jNMCPz4vEddlT_NG2kp-22" value="IsBankAccount" style="shape=partialRectangle;top=0;left=0;right=0;bottom=0;align=left;verticalAlign=top;spacingTop=-2;fillColor=none;spacingLeft=64;spacingRight=4;overflow=hidden;rotatable=0;points=[[0,0.5],[1,0.5]];portConstraint=eastwest;dropTarget=0;" parent="-jNMCPz4vEddlT_NG2kp-1" vertex="1">
          <mxGeometry y="286" width="200" height="26" as="geometry" />
        </mxCell>
        <mxCell id="-jNMCPz4vEddlT_NG2kp-23" value="" style="shape=partialRectangle;top=0;left=0;bottom=0;fillColor=none;align=left;verticalAlign=middle;spacingLeft=4;spacingRight=4;overflow=hidden;rotatable=180;points=[];portConstraint=eastwest;part=1;" parent="-jNMCPz4vEddlT_NG2kp-22" vertex="1" connectable="0">
          <mxGeometry width="54" height="26" as="geometry" />
        </mxCell>
        <mxCell id="-jNMCPz4vEddlT_NG2kp-24" value="IsInvestmentAccount" style="shape=partialRectangle;top=0;left=0;right=0;bottom=0;align=left;verticalAlign=top;spacingTop=-2;fillColor=none;spacingLeft=64;spacingRight=4;overflow=hidden;rotatable=0;points=[[0,0.5],[1,0.5]];portConstraint=eastwest;dropTarget=0;" parent="-jNMCPz4vEddlT_NG2kp-1" vertex="1">
          <mxGeometry y="312" width="200" height="26" as="geometry" />
        </mxCell>
        <mxCell id="-jNMCPz4vEddlT_NG2kp-25" value="" style="shape=partialRectangle;top=0;left=0;bottom=0;fillColor=none;align=left;verticalAlign=middle;spacingLeft=4;spacingRight=4;overflow=hidden;rotatable=180;points=[];portConstraint=eastwest;part=1;" parent="-jNMCPz4vEddlT_NG2kp-24" vertex="1" connectable="0">
          <mxGeometry width="54" height="26" as="geometry" />
        </mxCell>
        <mxCell id="-jNMCPz4vEddlT_NG2kp-26" value="CreatedBy" style="shape=partialRectangle;top=0;left=0;right=0;bottom=0;align=left;verticalAlign=top;spacingTop=-2;fillColor=none;spacingLeft=64;spacingRight=4;overflow=hidden;rotatable=0;points=[[0,0.5],[1,0.5]];portConstraint=eastwest;dropTarget=0;" parent="-jNMCPz4vEddlT_NG2kp-1" vertex="1">
          <mxGeometry y="338" width="200" height="26" as="geometry" />
        </mxCell>
        <mxCell id="-jNMCPz4vEddlT_NG2kp-27" value="" style="shape=partialRectangle;top=0;left=0;bottom=0;fillColor=none;align=left;verticalAlign=middle;spacingLeft=4;spacingRight=4;overflow=hidden;rotatable=180;points=[];portConstraint=eastwest;part=1;" parent="-jNMCPz4vEddlT_NG2kp-26" vertex="1" connectable="0">
          <mxGeometry width="54" height="26" as="geometry" />
        </mxCell>
        <mxCell id="-jNMCPz4vEddlT_NG2kp-28" value="CreatedOn" style="shape=partialRectangle;top=0;left=0;right=0;bottom=0;align=left;verticalAlign=top;spacingTop=-2;fillColor=none;spacingLeft=64;spacingRight=4;overflow=hidden;rotatable=0;points=[[0,0.5],[1,0.5]];portConstraint=eastwest;dropTarget=0;" parent="-jNMCPz4vEddlT_NG2kp-1" vertex="1">
          <mxGeometry y="364" width="200" height="26" as="geometry" />
        </mxCell>
        <mxCell id="-jNMCPz4vEddlT_NG2kp-29" value="" style="shape=partialRectangle;top=0;left=0;bottom=0;fillColor=none;align=left;verticalAlign=middle;spacingLeft=4;spacingRight=4;overflow=hidden;rotatable=180;points=[];portConstraint=eastwest;part=1;" parent="-jNMCPz4vEddlT_NG2kp-28" vertex="1" connectable="0">
          <mxGeometry width="54" height="26" as="geometry" />
        </mxCell>
        <mxCell id="-jNMCPz4vEddlT_NG2kp-30" value="LastModifiedBy" style="shape=partialRectangle;top=0;left=0;right=0;bottom=0;align=left;verticalAlign=top;spacingTop=-2;fillColor=none;spacingLeft=64;spacingRight=4;overflow=hidden;rotatable=0;points=[[0,0.5],[1,0.5]];portConstraint=eastwest;dropTarget=0;" parent="-jNMCPz4vEddlT_NG2kp-1" vertex="1">
          <mxGeometry y="390" width="200" height="26" as="geometry" />
        </mxCell>
        <mxCell id="-jNMCPz4vEddlT_NG2kp-31" value="" style="shape=partialRectangle;top=0;left=0;bottom=0;fillColor=none;align=left;verticalAlign=middle;spacingLeft=4;spacingRight=4;overflow=hidden;rotatable=180;points=[];portConstraint=eastwest;part=1;" parent="-jNMCPz4vEddlT_NG2kp-30" vertex="1" connectable="0">
          <mxGeometry width="54" height="26" as="geometry" />
        </mxCell>
        <mxCell id="-jNMCPz4vEddlT_NG2kp-32" value="LastModifiedOn" style="shape=partialRectangle;top=0;left=0;right=0;bottom=0;align=left;verticalAlign=top;spacingTop=-2;fillColor=none;spacingLeft=64;spacingRight=4;overflow=hidden;rotatable=0;points=[[0,0.5],[1,0.5]];portConstraint=eastwest;dropTarget=0;" parent="-jNMCPz4vEddlT_NG2kp-1" vertex="1">
          <mxGeometry y="416" width="200" height="26" as="geometry" />
        </mxCell>
        <mxCell id="-jNMCPz4vEddlT_NG2kp-33" value="" style="shape=partialRectangle;top=0;left=0;bottom=0;fillColor=none;align=left;verticalAlign=middle;spacingLeft=4;spacingRight=4;overflow=hidden;rotatable=180;points=[];portConstraint=eastwest;part=1;" parent="-jNMCPz4vEddlT_NG2kp-32" vertex="1" connectable="0">
          <mxGeometry width="54" height="26" as="geometry" />
        </mxCell>
        <mxCell id="BibzhXY02vluXzdNH_Wg-1" value="Investment" style="swimlane;fontStyle=0;childLayout=stackLayout;horizontal=1;startSize=26;fillColor=#e0e0e0;horizontalStack=0;resizeParent=1;resizeLast=0;collapsible=1;marginBottom=0;swimlaneFillColor=#ffffff;align=center;" vertex="1" parent="1">
          <mxGeometry x="510" y="120" width="250" height="624" as="geometry" />
        </mxCell>
        <mxCell id="BibzhXY02vluXzdNH_Wg-2" value="Id" style="shape=partialRectangle;top=0;left=0;right=0;bottom=0;align=left;verticalAlign=top;spacingTop=-2;fillColor=none;spacingLeft=64;spacingRight=4;overflow=hidden;rotatable=0;points=[[0,0.5],[1,0.5]];portConstraint=eastwest;dropTarget=0;" vertex="1" parent="BibzhXY02vluXzdNH_Wg-1">
          <mxGeometry y="26" width="250" height="26" as="geometry" />
        </mxCell>
        <mxCell id="BibzhXY02vluXzdNH_Wg-3" value="" style="shape=partialRectangle;top=0;left=0;bottom=0;fillColor=none;align=left;verticalAlign=middle;spacingLeft=4;spacingRight=4;overflow=hidden;rotatable=180;points=[];portConstraint=eastwest;part=1;" vertex="1" connectable="0" parent="BibzhXY02vluXzdNH_Wg-2">
          <mxGeometry width="54" height="26" as="geometry" />
        </mxCell>
        <mxCell id="BibzhXY02vluXzdNH_Wg-4" value="Name" style="shape=partialRectangle;top=0;left=0;right=0;bottom=0;align=left;verticalAlign=top;spacingTop=-2;fillColor=none;spacingLeft=64;spacingRight=4;overflow=hidden;rotatable=0;points=[[0,0.5],[1,0.5]];portConstraint=eastwest;dropTarget=0;" vertex="1" parent="BibzhXY02vluXzdNH_Wg-1">
          <mxGeometry y="52" width="250" height="26" as="geometry" />
        </mxCell>
        <mxCell id="BibzhXY02vluXzdNH_Wg-5" value="" style="shape=partialRectangle;top=0;left=0;bottom=0;fillColor=none;align=left;verticalAlign=middle;spacingLeft=4;spacingRight=4;overflow=hidden;rotatable=180;points=[];portConstraint=eastwest;part=1;" vertex="1" connectable="0" parent="BibzhXY02vluXzdNH_Wg-4">
          <mxGeometry width="54" height="26" as="geometry" />
        </mxCell>
        <mxCell id="BibzhXY02vluXzdNH_Wg-6" value="Code" style="shape=partialRectangle;top=0;left=0;right=0;bottom=0;align=left;verticalAlign=top;spacingTop=-2;fillColor=none;spacingLeft=64;spacingRight=4;overflow=hidden;rotatable=0;points=[[0,0.5],[1,0.5]];portConstraint=eastwest;dropTarget=0;" vertex="1" parent="BibzhXY02vluXzdNH_Wg-1">
          <mxGeometry y="78" width="250" height="26" as="geometry" />
        </mxCell>
        <mxCell id="BibzhXY02vluXzdNH_Wg-7" value="" style="shape=partialRectangle;top=0;left=0;bottom=0;fillColor=none;align=left;verticalAlign=middle;spacingLeft=4;spacingRight=4;overflow=hidden;rotatable=180;points=[];portConstraint=eastwest;part=1;" vertex="1" connectable="0" parent="BibzhXY02vluXzdNH_Wg-6">
          <mxGeometry width="54" height="26" as="geometry" />
        </mxCell>
        <mxCell id="BibzhXY02vluXzdNH_Wg-8" value="FinanceAccountId" style="shape=partialRectangle;top=0;left=0;right=0;bottom=0;align=left;verticalAlign=top;spacingTop=-2;fillColor=none;spacingLeft=64;spacingRight=4;overflow=hidden;rotatable=0;points=[[0,0.5],[1,0.5]];portConstraint=eastwest;dropTarget=0;" vertex="1" parent="BibzhXY02vluXzdNH_Wg-1">
          <mxGeometry y="104" width="250" height="26" as="geometry" />
        </mxCell>
        <mxCell id="BibzhXY02vluXzdNH_Wg-9" value="" style="shape=partialRectangle;top=0;left=0;bottom=0;fillColor=none;align=left;verticalAlign=middle;spacingLeft=4;spacingRight=4;overflow=hidden;rotatable=180;points=[];portConstraint=eastwest;part=1;" vertex="1" connectable="0" parent="BibzhXY02vluXzdNH_Wg-8">
          <mxGeometry width="54" height="26" as="geometry" />
        </mxCell>
        <mxCell id="BibzhXY02vluXzdNH_Wg-10" value="No" style="shape=partialRectangle;top=0;left=0;right=0;bottom=0;align=left;verticalAlign=top;spacingTop=-2;fillColor=none;spacingLeft=64;spacingRight=4;overflow=hidden;rotatable=0;points=[[0,0.5],[1,0.5]];portConstraint=eastwest;dropTarget=0;" vertex="1" parent="BibzhXY02vluXzdNH_Wg-1">
          <mxGeometry y="130" width="250" height="26" as="geometry" />
        </mxCell>
        <mxCell id="BibzhXY02vluXzdNH_Wg-11" value="" style="shape=partialRectangle;top=0;left=0;bottom=0;fillColor=none;align=left;verticalAlign=middle;spacingLeft=4;spacingRight=4;overflow=hidden;rotatable=180;points=[];portConstraint=eastwest;part=1;" vertex="1" connectable="0" parent="BibzhXY02vluXzdNH_Wg-10">
          <mxGeometry width="54" height="26" as="geometry" />
        </mxCell>
        <mxCell id="BibzhXY02vluXzdNH_Wg-12" value="ISIN" style="shape=partialRectangle;top=0;left=0;right=0;bottom=0;align=left;verticalAlign=top;spacingTop=-2;fillColor=none;spacingLeft=64;spacingRight=4;overflow=hidden;rotatable=0;points=[[0,0.5],[1,0.5]];portConstraint=eastwest;dropTarget=0;" vertex="1" parent="BibzhXY02vluXzdNH_Wg-1">
          <mxGeometry y="156" width="250" height="26" as="geometry" />
        </mxCell>
        <mxCell id="BibzhXY02vluXzdNH_Wg-13" value="" style="shape=partialRectangle;top=0;left=0;bottom=0;fillColor=none;align=left;verticalAlign=middle;spacingLeft=4;spacingRight=4;overflow=hidden;rotatable=180;points=[];portConstraint=eastwest;part=1;" vertex="1" connectable="0" parent="BibzhXY02vluXzdNH_Wg-12">
          <mxGeometry width="54" height="26" as="geometry" />
        </mxCell>
        <mxCell id="BibzhXY02vluXzdNH_Wg-14" value="WKN" style="shape=partialRectangle;top=0;left=0;right=0;bottom=0;align=left;verticalAlign=top;spacingTop=-2;fillColor=none;spacingLeft=64;spacingRight=4;overflow=hidden;rotatable=0;points=[[0,0.5],[1,0.5]];portConstraint=eastwest;dropTarget=0;" vertex="1" parent="BibzhXY02vluXzdNH_Wg-1">
          <mxGeometry y="182" width="250" height="26" as="geometry" />
        </mxCell>
        <mxCell id="BibzhXY02vluXzdNH_Wg-15" value="" style="shape=partialRectangle;top=0;left=0;bottom=0;fillColor=none;align=left;verticalAlign=middle;spacingLeft=4;spacingRight=4;overflow=hidden;rotatable=180;points=[];portConstraint=eastwest;part=1;" vertex="1" connectable="0" parent="BibzhXY02vluXzdNH_Wg-14">
          <mxGeometry width="54" height="26" as="geometry" />
        </mxCell>
        <mxCell id="BibzhXY02vluXzdNH_Wg-16" value="InvestmentEndDate" style="shape=partialRectangle;top=0;left=0;right=0;bottom=0;align=left;verticalAlign=top;spacingTop=-2;fillColor=none;spacingLeft=64;spacingRight=4;overflow=hidden;rotatable=0;points=[[0,0.5],[1,0.5]];portConstraint=eastwest;dropTarget=0;" vertex="1" parent="BibzhXY02vluXzdNH_Wg-1">
          <mxGeometry y="208" width="250" height="26" as="geometry" />
        </mxCell>
        <mxCell id="BibzhXY02vluXzdNH_Wg-17" value="" style="shape=partialRectangle;top=0;left=0;bottom=0;fillColor=none;align=left;verticalAlign=middle;spacingLeft=4;spacingRight=4;overflow=hidden;rotatable=180;points=[];portConstraint=eastwest;part=1;" vertex="1" connectable="0" parent="BibzhXY02vluXzdNH_Wg-16">
          <mxGeometry width="54" height="26" as="geometry" />
        </mxCell>
        <mxCell id="BibzhXY02vluXzdNH_Wg-18" value="EmmissionNo" style="shape=partialRectangle;top=0;left=0;right=0;bottom=0;align=left;verticalAlign=top;spacingTop=-2;fillColor=none;spacingLeft=64;spacingRight=4;overflow=hidden;rotatable=0;points=[[0,0.5],[1,0.5]];portConstraint=eastwest;dropTarget=0;" vertex="1" parent="BibzhXY02vluXzdNH_Wg-1">
          <mxGeometry y="234" width="250" height="26" as="geometry" />
        </mxCell>
        <mxCell id="BibzhXY02vluXzdNH_Wg-19" value="" style="shape=partialRectangle;top=0;left=0;bottom=0;fillColor=none;align=left;verticalAlign=middle;spacingLeft=4;spacingRight=4;overflow=hidden;rotatable=180;points=[];portConstraint=eastwest;part=1;" vertex="1" connectable="0" parent="BibzhXY02vluXzdNH_Wg-18">
          <mxGeometry width="54" height="26" as="geometry" />
        </mxCell>
        <mxCell id="BibzhXY02vluXzdNH_Wg-20" value="TACode" style="shape=partialRectangle;top=0;left=0;right=0;bottom=0;align=left;verticalAlign=top;spacingTop=-2;fillColor=none;spacingLeft=64;spacingRight=4;overflow=hidden;rotatable=0;points=[[0,0.5],[1,0.5]];portConstraint=eastwest;dropTarget=0;" vertex="1" parent="BibzhXY02vluXzdNH_Wg-1">
          <mxGeometry y="260" width="250" height="26" as="geometry" />
        </mxCell>
        <mxCell id="BibzhXY02vluXzdNH_Wg-21" value="" style="shape=partialRectangle;top=0;left=0;bottom=0;fillColor=none;align=left;verticalAlign=middle;spacingLeft=4;spacingRight=4;overflow=hidden;rotatable=180;points=[];portConstraint=eastwest;part=1;" vertex="1" connectable="0" parent="BibzhXY02vluXzdNH_Wg-20">
          <mxGeometry width="54" height="26" as="geometry" />
        </mxCell>
        <mxCell id="BibzhXY02vluXzdNH_Wg-22" value="InvestmentValue" style="shape=partialRectangle;top=0;left=0;right=0;bottom=0;align=left;verticalAlign=top;spacingTop=-2;fillColor=none;spacingLeft=64;spacingRight=4;overflow=hidden;rotatable=0;points=[[0,0.5],[1,0.5]];portConstraint=eastwest;dropTarget=0;" vertex="1" parent="BibzhXY02vluXzdNH_Wg-1">
          <mxGeometry y="286" width="250" height="26" as="geometry" />
        </mxCell>
        <mxCell id="BibzhXY02vluXzdNH_Wg-23" value="" style="shape=partialRectangle;top=0;left=0;bottom=0;fillColor=none;align=left;verticalAlign=middle;spacingLeft=4;spacingRight=4;overflow=hidden;rotatable=180;points=[];portConstraint=eastwest;part=1;" vertex="1" connectable="0" parent="BibzhXY02vluXzdNH_Wg-22">
          <mxGeometry width="54" height="26" as="geometry" />
        </mxCell>
        <mxCell id="BibzhXY02vluXzdNH_Wg-24" value="NominalValueOfAnInvestment" style="shape=partialRectangle;top=0;left=0;right=0;bottom=0;align=left;verticalAlign=top;spacingTop=-2;fillColor=none;spacingLeft=64;spacingRight=4;overflow=hidden;rotatable=0;points=[[0,0.5],[1,0.5]];portConstraint=eastwest;dropTarget=0;" vertex="1" parent="BibzhXY02vluXzdNH_Wg-1">
          <mxGeometry y="312" width="250" height="26" as="geometry" />
        </mxCell>
        <mxCell id="BibzhXY02vluXzdNH_Wg-25" value="" style="shape=partialRectangle;top=0;left=0;bottom=0;fillColor=none;align=left;verticalAlign=middle;spacingLeft=4;spacingRight=4;overflow=hidden;rotatable=180;points=[];portConstraint=eastwest;part=1;" vertex="1" connectable="0" parent="BibzhXY02vluXzdNH_Wg-24">
          <mxGeometry width="54" height="26" as="geometry" />
        </mxCell>
        <mxCell id="BibzhXY02vluXzdNH_Wg-26" value="Quantity" style="shape=partialRectangle;top=0;left=0;right=0;bottom=0;align=left;verticalAlign=top;spacingTop=-2;fillColor=none;spacingLeft=64;spacingRight=4;overflow=hidden;rotatable=0;points=[[0,0.5],[1,0.5]];portConstraint=eastwest;dropTarget=0;" vertex="1" parent="BibzhXY02vluXzdNH_Wg-1">
          <mxGeometry y="338" width="250" height="26" as="geometry" />
        </mxCell>
        <mxCell id="BibzhXY02vluXzdNH_Wg-27" value="" style="shape=partialRectangle;top=0;left=0;bottom=0;fillColor=none;align=left;verticalAlign=middle;spacingLeft=4;spacingRight=4;overflow=hidden;rotatable=180;points=[];portConstraint=eastwest;part=1;" vertex="1" connectable="0" parent="BibzhXY02vluXzdNH_Wg-26">
          <mxGeometry width="54" height="26" as="geometry" />
        </mxCell>
        <mxCell id="BibzhXY02vluXzdNH_Wg-28" value="DividendReturnPercentage" style="shape=partialRectangle;top=0;left=0;right=0;bottom=0;align=left;verticalAlign=top;spacingTop=-2;fillColor=none;spacingLeft=64;spacingRight=4;overflow=hidden;rotatable=0;points=[[0,0.5],[1,0.5]];portConstraint=eastwest;dropTarget=0;" vertex="1" parent="BibzhXY02vluXzdNH_Wg-1">
          <mxGeometry y="364" width="250" height="26" as="geometry" />
        </mxCell>
        <mxCell id="BibzhXY02vluXzdNH_Wg-29" value="" style="shape=partialRectangle;top=0;left=0;bottom=0;fillColor=none;align=left;verticalAlign=middle;spacingLeft=4;spacingRight=4;overflow=hidden;rotatable=180;points=[];portConstraint=eastwest;part=1;" vertex="1" connectable="0" parent="BibzhXY02vluXzdNH_Wg-28">
          <mxGeometry width="54" height="26" as="geometry" />
        </mxCell>
        <mxCell id="BibzhXY02vluXzdNH_Wg-30" value="TotalReturnPercentage" style="shape=partialRectangle;top=0;left=0;right=0;bottom=0;align=left;verticalAlign=top;spacingTop=-2;fillColor=none;spacingLeft=64;spacingRight=4;overflow=hidden;rotatable=0;points=[[0,0.5],[1,0.5]];portConstraint=eastwest;dropTarget=0;" vertex="1" parent="BibzhXY02vluXzdNH_Wg-1">
          <mxGeometry y="390" width="250" height="26" as="geometry" />
        </mxCell>
        <mxCell id="BibzhXY02vluXzdNH_Wg-31" value="" style="shape=partialRectangle;top=0;left=0;bottom=0;fillColor=none;align=left;verticalAlign=middle;spacingLeft=4;spacingRight=4;overflow=hidden;rotatable=180;points=[];portConstraint=eastwest;part=1;" vertex="1" connectable="0" parent="BibzhXY02vluXzdNH_Wg-30">
          <mxGeometry width="54" height="26" as="geometry" />
        </mxCell>
        <mxCell id="BibzhXY02vluXzdNH_Wg-32" value="IsActive" style="shape=partialRectangle;top=0;left=0;right=0;bottom=0;align=left;verticalAlign=top;spacingTop=-2;fillColor=none;spacingLeft=64;spacingRight=4;overflow=hidden;rotatable=0;points=[[0,0.5],[1,0.5]];portConstraint=eastwest;dropTarget=0;" vertex="1" parent="BibzhXY02vluXzdNH_Wg-1">
          <mxGeometry y="416" width="250" height="26" as="geometry" />
        </mxCell>
        <mxCell id="BibzhXY02vluXzdNH_Wg-33" value="" style="shape=partialRectangle;top=0;left=0;bottom=0;fillColor=none;align=left;verticalAlign=middle;spacingLeft=4;spacingRight=4;overflow=hidden;rotatable=180;points=[];portConstraint=eastwest;part=1;" vertex="1" connectable="0" parent="BibzhXY02vluXzdNH_Wg-32">
          <mxGeometry width="54" height="26" as="geometry" />
        </mxCell>
        <mxCell id="BibzhXY02vluXzdNH_Wg-34" value="Type" style="shape=partialRectangle;top=0;left=0;right=0;bottom=0;align=left;verticalAlign=top;spacingTop=-2;fillColor=none;spacingLeft=64;spacingRight=4;overflow=hidden;rotatable=0;points=[[0,0.5],[1,0.5]];portConstraint=eastwest;dropTarget=0;" vertex="1" parent="BibzhXY02vluXzdNH_Wg-1">
          <mxGeometry y="442" width="250" height="26" as="geometry" />
        </mxCell>
        <mxCell id="BibzhXY02vluXzdNH_Wg-35" value="" style="shape=partialRectangle;top=0;left=0;bottom=0;fillColor=none;align=left;verticalAlign=middle;spacingLeft=4;spacingRight=4;overflow=hidden;rotatable=180;points=[];portConstraint=eastwest;part=1;" vertex="1" connectable="0" parent="BibzhXY02vluXzdNH_Wg-34">
          <mxGeometry width="54" height="26" as="geometry" />
        </mxCell>
        <mxCell id="BibzhXY02vluXzdNH_Wg-36" value="InterestClaimSinceDate" style="shape=partialRectangle;top=0;left=0;right=0;bottom=0;align=left;verticalAlign=top;spacingTop=-2;fillColor=none;spacingLeft=64;spacingRight=4;overflow=hidden;rotatable=0;points=[[0,0.5],[1,0.5]];portConstraint=eastwest;dropTarget=0;" vertex="1" parent="BibzhXY02vluXzdNH_Wg-1">
          <mxGeometry y="468" width="250" height="26" as="geometry" />
        </mxCell>
        <mxCell id="BibzhXY02vluXzdNH_Wg-37" value="" style="shape=partialRectangle;top=0;left=0;bottom=0;fillColor=none;align=left;verticalAlign=middle;spacingLeft=4;spacingRight=4;overflow=hidden;rotatable=180;points=[];portConstraint=eastwest;part=1;" vertex="1" connectable="0" parent="BibzhXY02vluXzdNH_Wg-36">
          <mxGeometry width="54" height="26" as="geometry" />
        </mxCell>
        <mxCell id="BibzhXY02vluXzdNH_Wg-38" value="DaysLate" style="shape=partialRectangle;top=0;left=0;right=0;bottom=0;align=left;verticalAlign=top;spacingTop=-2;fillColor=none;spacingLeft=64;spacingRight=4;overflow=hidden;rotatable=0;points=[[0,0.5],[1,0.5]];portConstraint=eastwest;dropTarget=0;" vertex="1" parent="BibzhXY02vluXzdNH_Wg-1">
          <mxGeometry y="494" width="250" height="26" as="geometry" />
        </mxCell>
        <mxCell id="BibzhXY02vluXzdNH_Wg-39" value="" style="shape=partialRectangle;top=0;left=0;bottom=0;fillColor=none;align=left;verticalAlign=middle;spacingLeft=4;spacingRight=4;overflow=hidden;rotatable=180;points=[];portConstraint=eastwest;part=1;" vertex="1" connectable="0" parent="BibzhXY02vluXzdNH_Wg-38">
          <mxGeometry width="54" height="26" as="geometry" />
        </mxCell>
        <mxCell id="BibzhXY02vluXzdNH_Wg-40" value="CreatedBy" style="shape=partialRectangle;top=0;left=0;right=0;bottom=0;align=left;verticalAlign=top;spacingTop=-2;fillColor=none;spacingLeft=64;spacingRight=4;overflow=hidden;rotatable=0;points=[[0,0.5],[1,0.5]];portConstraint=eastwest;dropTarget=0;" vertex="1" parent="BibzhXY02vluXzdNH_Wg-1">
          <mxGeometry y="520" width="250" height="26" as="geometry" />
        </mxCell>
        <mxCell id="BibzhXY02vluXzdNH_Wg-41" value="" style="shape=partialRectangle;top=0;left=0;bottom=0;fillColor=none;align=left;verticalAlign=middle;spacingLeft=4;spacingRight=4;overflow=hidden;rotatable=180;points=[];portConstraint=eastwest;part=1;" vertex="1" connectable="0" parent="BibzhXY02vluXzdNH_Wg-40">
          <mxGeometry width="54" height="26" as="geometry" />
        </mxCell>
        <mxCell id="BibzhXY02vluXzdNH_Wg-42" value="CreatedOn" style="shape=partialRectangle;top=0;left=0;right=0;bottom=0;align=left;verticalAlign=top;spacingTop=-2;fillColor=none;spacingLeft=64;spacingRight=4;overflow=hidden;rotatable=0;points=[[0,0.5],[1,0.5]];portConstraint=eastwest;dropTarget=0;" vertex="1" parent="BibzhXY02vluXzdNH_Wg-1">
          <mxGeometry y="546" width="250" height="26" as="geometry" />
        </mxCell>
        <mxCell id="BibzhXY02vluXzdNH_Wg-43" value="" style="shape=partialRectangle;top=0;left=0;bottom=0;fillColor=none;align=left;verticalAlign=middle;spacingLeft=4;spacingRight=4;overflow=hidden;rotatable=180;points=[];portConstraint=eastwest;part=1;" vertex="1" connectable="0" parent="BibzhXY02vluXzdNH_Wg-42">
          <mxGeometry width="54" height="26" as="geometry" />
        </mxCell>
        <mxCell id="BibzhXY02vluXzdNH_Wg-44" value="LastModifiedBy" style="shape=partialRectangle;top=0;left=0;right=0;bottom=0;align=left;verticalAlign=top;spacingTop=-2;fillColor=none;spacingLeft=64;spacingRight=4;overflow=hidden;rotatable=0;points=[[0,0.5],[1,0.5]];portConstraint=eastwest;dropTarget=0;" vertex="1" parent="BibzhXY02vluXzdNH_Wg-1">
          <mxGeometry y="572" width="250" height="26" as="geometry" />
        </mxCell>
        <mxCell id="BibzhXY02vluXzdNH_Wg-45" value="" style="shape=partialRectangle;top=0;left=0;bottom=0;fillColor=none;align=left;verticalAlign=middle;spacingLeft=4;spacingRight=4;overflow=hidden;rotatable=180;points=[];portConstraint=eastwest;part=1;" vertex="1" connectable="0" parent="BibzhXY02vluXzdNH_Wg-44">
          <mxGeometry width="54" height="26" as="geometry" />
        </mxCell>
        <mxCell id="BibzhXY02vluXzdNH_Wg-46" value="LastModifiedOn" style="shape=partialRectangle;top=0;left=0;right=0;bottom=0;align=left;verticalAlign=top;spacingTop=-2;fillColor=none;spacingLeft=64;spacingRight=4;overflow=hidden;rotatable=0;points=[[0,0.5],[1,0.5]];portConstraint=eastwest;dropTarget=0;" vertex="1" parent="BibzhXY02vluXzdNH_Wg-1">
          <mxGeometry y="598" width="250" height="26" as="geometry" />
        </mxCell>
        <mxCell id="BibzhXY02vluXzdNH_Wg-47" value="" style="shape=partialRectangle;top=0;left=0;bottom=0;fillColor=none;align=left;verticalAlign=middle;spacingLeft=4;spacingRight=4;overflow=hidden;rotatable=180;points=[];portConstraint=eastwest;part=1;" vertex="1" connectable="0" parent="BibzhXY02vluXzdNH_Wg-46">
          <mxGeometry width="54" height="26" as="geometry" />
        </mxCell>
        <mxCell id="BibzhXY02vluXzdNH_Wg-48" style="edgeStyle=orthogonalEdgeStyle;rounded=0;orthogonalLoop=1;jettySize=auto;html=1;entryX=1.023;entryY=0.269;entryDx=0;entryDy=0;entryPerimeter=0;" edge="1" parent="1" source="BibzhXY02vluXzdNH_Wg-8" target="-jNMCPz4vEddlT_NG2kp-2">
          <mxGeometry relative="1" as="geometry" />
        </mxCell>
        <mxCell id="BibzhXY02vluXzdNH_Wg-49" value="Transactions" style="swimlane;fontStyle=0;childLayout=stackLayout;horizontal=1;startSize=26;fillColor=#e0e0e0;horizontalStack=0;resizeParent=1;resizeLast=0;collapsible=1;marginBottom=0;swimlaneFillColor=#ffffff;align=center;" vertex="1" parent="1">
          <mxGeometry x="290" y="560" width="190" height="676" as="geometry" />
        </mxCell>
        <mxCell id="BibzhXY02vluXzdNH_Wg-50" value="Id" style="shape=partialRectangle;top=0;left=0;right=0;bottom=0;align=left;verticalAlign=top;spacingTop=-2;fillColor=none;spacingLeft=64;spacingRight=4;overflow=hidden;rotatable=0;points=[[0,0.5],[1,0.5]];portConstraint=eastwest;dropTarget=0;" vertex="1" parent="BibzhXY02vluXzdNH_Wg-49">
          <mxGeometry y="26" width="190" height="26" as="geometry" />
        </mxCell>
        <mxCell id="BibzhXY02vluXzdNH_Wg-51" value="" style="shape=partialRectangle;top=0;left=0;bottom=0;fillColor=none;align=left;verticalAlign=middle;spacingLeft=4;spacingRight=4;overflow=hidden;rotatable=180;points=[];portConstraint=eastwest;part=1;" vertex="1" connectable="0" parent="BibzhXY02vluXzdNH_Wg-50">
          <mxGeometry width="54" height="26" as="geometry" />
        </mxCell>
        <mxCell id="BibzhXY02vluXzdNH_Wg-52" value="Name" style="shape=partialRectangle;top=0;left=0;right=0;bottom=0;align=left;verticalAlign=top;spacingTop=-2;fillColor=none;spacingLeft=64;spacingRight=4;overflow=hidden;rotatable=0;points=[[0,0.5],[1,0.5]];portConstraint=eastwest;dropTarget=0;" vertex="1" parent="BibzhXY02vluXzdNH_Wg-49">
          <mxGeometry y="52" width="190" height="26" as="geometry" />
        </mxCell>
        <mxCell id="BibzhXY02vluXzdNH_Wg-53" value="" style="shape=partialRectangle;top=0;left=0;bottom=0;fillColor=none;align=left;verticalAlign=middle;spacingLeft=4;spacingRight=4;overflow=hidden;rotatable=180;points=[];portConstraint=eastwest;part=1;" vertex="1" connectable="0" parent="BibzhXY02vluXzdNH_Wg-52">
          <mxGeometry width="54" height="26" as="geometry" />
        </mxCell>
        <mxCell id="BibzhXY02vluXzdNH_Wg-54" value="Code" style="shape=partialRectangle;top=0;left=0;right=0;bottom=0;align=left;verticalAlign=top;spacingTop=-2;fillColor=none;spacingLeft=64;spacingRight=4;overflow=hidden;rotatable=0;points=[[0,0.5],[1,0.5]];portConstraint=eastwest;dropTarget=0;" vertex="1" parent="BibzhXY02vluXzdNH_Wg-49">
          <mxGeometry y="78" width="190" height="26" as="geometry" />
        </mxCell>
        <mxCell id="BibzhXY02vluXzdNH_Wg-55" value="" style="shape=partialRectangle;top=0;left=0;bottom=0;fillColor=none;align=left;verticalAlign=middle;spacingLeft=4;spacingRight=4;overflow=hidden;rotatable=180;points=[];portConstraint=eastwest;part=1;" vertex="1" connectable="0" parent="BibzhXY02vluXzdNH_Wg-54">
          <mxGeometry width="54" height="26" as="geometry" />
        </mxCell>
        <mxCell id="BibzhXY02vluXzdNH_Wg-56" value="DateTime" style="shape=partialRectangle;top=0;left=0;right=0;bottom=0;align=left;verticalAlign=top;spacingTop=-2;fillColor=none;spacingLeft=64;spacingRight=4;overflow=hidden;rotatable=0;points=[[0,0.5],[1,0.5]];portConstraint=eastwest;dropTarget=0;" vertex="1" parent="BibzhXY02vluXzdNH_Wg-49">
          <mxGeometry y="104" width="190" height="26" as="geometry" />
        </mxCell>
        <mxCell id="BibzhXY02vluXzdNH_Wg-57" value="" style="shape=partialRectangle;top=0;left=0;bottom=0;fillColor=none;align=left;verticalAlign=middle;spacingLeft=4;spacingRight=4;overflow=hidden;rotatable=180;points=[];portConstraint=eastwest;part=1;" vertex="1" connectable="0" parent="BibzhXY02vluXzdNH_Wg-56">
          <mxGeometry width="54" height="26" as="geometry" />
        </mxCell>
        <mxCell id="BibzhXY02vluXzdNH_Wg-58" value="PostingDate" style="shape=partialRectangle;top=0;left=0;right=0;bottom=0;align=left;verticalAlign=top;spacingTop=-2;fillColor=none;spacingLeft=64;spacingRight=4;overflow=hidden;rotatable=0;points=[[0,0.5],[1,0.5]];portConstraint=eastwest;dropTarget=0;" vertex="1" parent="BibzhXY02vluXzdNH_Wg-49">
          <mxGeometry y="130" width="190" height="26" as="geometry" />
        </mxCell>
        <mxCell id="BibzhXY02vluXzdNH_Wg-59" value="" style="shape=partialRectangle;top=0;left=0;bottom=0;fillColor=none;align=left;verticalAlign=middle;spacingLeft=4;spacingRight=4;overflow=hidden;rotatable=180;points=[];portConstraint=eastwest;part=1;" vertex="1" connectable="0" parent="BibzhXY02vluXzdNH_Wg-58">
          <mxGeometry width="54" height="26" as="geometry" />
        </mxCell>
        <mxCell id="BibzhXY02vluXzdNH_Wg-60" value="DocumentNo" style="shape=partialRectangle;top=0;left=0;right=0;bottom=0;align=left;verticalAlign=top;spacingTop=-2;fillColor=none;spacingLeft=64;spacingRight=4;overflow=hidden;rotatable=0;points=[[0,0.5],[1,0.5]];portConstraint=eastwest;dropTarget=0;" vertex="1" parent="BibzhXY02vluXzdNH_Wg-49">
          <mxGeometry y="156" width="190" height="26" as="geometry" />
        </mxCell>
        <mxCell id="BibzhXY02vluXzdNH_Wg-61" value="" style="shape=partialRectangle;top=0;left=0;bottom=0;fillColor=none;align=left;verticalAlign=middle;spacingLeft=4;spacingRight=4;overflow=hidden;rotatable=180;points=[];portConstraint=eastwest;part=1;" vertex="1" connectable="0" parent="BibzhXY02vluXzdNH_Wg-60">
          <mxGeometry width="54" height="26" as="geometry" />
        </mxCell>
        <mxCell id="BibzhXY02vluXzdNH_Wg-62" value="CategoryName" style="shape=partialRectangle;top=0;left=0;right=0;bottom=0;align=left;verticalAlign=top;spacingTop=-2;fillColor=none;spacingLeft=64;spacingRight=4;overflow=hidden;rotatable=0;points=[[0,0.5],[1,0.5]];portConstraint=eastwest;dropTarget=0;" vertex="1" parent="BibzhXY02vluXzdNH_Wg-49">
          <mxGeometry y="182" width="190" height="26" as="geometry" />
        </mxCell>
        <mxCell id="BibzhXY02vluXzdNH_Wg-63" value="" style="shape=partialRectangle;top=0;left=0;bottom=0;fillColor=none;align=left;verticalAlign=middle;spacingLeft=4;spacingRight=4;overflow=hidden;rotatable=180;points=[];portConstraint=eastwest;part=1;" vertex="1" connectable="0" parent="BibzhXY02vluXzdNH_Wg-62">
          <mxGeometry width="54" height="26" as="geometry" />
        </mxCell>
        <mxCell id="BibzhXY02vluXzdNH_Wg-64" value="Description" style="shape=partialRectangle;top=0;left=0;right=0;bottom=0;align=left;verticalAlign=top;spacingTop=-2;fillColor=none;spacingLeft=64;spacingRight=4;overflow=hidden;rotatable=0;points=[[0,0.5],[1,0.5]];portConstraint=eastwest;dropTarget=0;" vertex="1" parent="BibzhXY02vluXzdNH_Wg-49">
          <mxGeometry y="208" width="190" height="26" as="geometry" />
        </mxCell>
        <mxCell id="BibzhXY02vluXzdNH_Wg-65" value="" style="shape=partialRectangle;top=0;left=0;bottom=0;fillColor=none;align=left;verticalAlign=middle;spacingLeft=4;spacingRight=4;overflow=hidden;rotatable=180;points=[];portConstraint=eastwest;part=1;" vertex="1" connectable="0" parent="BibzhXY02vluXzdNH_Wg-64">
          <mxGeometry width="54" height="26" as="geometry" />
        </mxCell>
        <mxCell id="BibzhXY02vluXzdNH_Wg-66" value="FinanceAccountId" style="shape=partialRectangle;top=0;left=0;right=0;bottom=0;align=left;verticalAlign=top;spacingTop=-2;fillColor=none;spacingLeft=64;spacingRight=4;overflow=hidden;rotatable=0;points=[[0,0.5],[1,0.5]];portConstraint=eastwest;dropTarget=0;" vertex="1" parent="BibzhXY02vluXzdNH_Wg-49">
          <mxGeometry y="234" width="190" height="26" as="geometry" />
        </mxCell>
        <mxCell id="BibzhXY02vluXzdNH_Wg-67" value="" style="shape=partialRectangle;top=0;left=0;bottom=0;fillColor=none;align=left;verticalAlign=middle;spacingLeft=4;spacingRight=4;overflow=hidden;rotatable=180;points=[];portConstraint=eastwest;part=1;" vertex="1" connectable="0" parent="BibzhXY02vluXzdNH_Wg-66">
          <mxGeometry width="54" height="26" as="geometry" />
        </mxCell>
        <mxCell id="BibzhXY02vluXzdNH_Wg-68" value="Receiver" style="shape=partialRectangle;top=0;left=0;right=0;bottom=0;align=left;verticalAlign=top;spacingTop=-2;fillColor=none;spacingLeft=64;spacingRight=4;overflow=hidden;rotatable=0;points=[[0,0.5],[1,0.5]];portConstraint=eastwest;dropTarget=0;" vertex="1" parent="BibzhXY02vluXzdNH_Wg-49">
          <mxGeometry y="260" width="190" height="26" as="geometry" />
        </mxCell>
        <mxCell id="BibzhXY02vluXzdNH_Wg-69" value="" style="shape=partialRectangle;top=0;left=0;bottom=0;fillColor=none;align=left;verticalAlign=middle;spacingLeft=4;spacingRight=4;overflow=hidden;rotatable=180;points=[];portConstraint=eastwest;part=1;" vertex="1" connectable="0" parent="BibzhXY02vluXzdNH_Wg-68">
          <mxGeometry width="54" height="26" as="geometry" />
        </mxCell>
        <mxCell id="BibzhXY02vluXzdNH_Wg-70" value="IsInitAmount" style="shape=partialRectangle;top=0;left=0;right=0;bottom=0;align=left;verticalAlign=top;spacingTop=-2;fillColor=none;spacingLeft=64;spacingRight=4;overflow=hidden;rotatable=0;points=[[0,0.5],[1,0.5]];portConstraint=eastwest;dropTarget=0;" vertex="1" parent="BibzhXY02vluXzdNH_Wg-49">
          <mxGeometry y="286" width="190" height="26" as="geometry" />
        </mxCell>
        <mxCell id="BibzhXY02vluXzdNH_Wg-71" value="" style="shape=partialRectangle;top=0;left=0;bottom=0;fillColor=none;align=left;verticalAlign=middle;spacingLeft=4;spacingRight=4;overflow=hidden;rotatable=180;points=[];portConstraint=eastwest;part=1;" vertex="1" connectable="0" parent="BibzhXY02vluXzdNH_Wg-70">
          <mxGeometry width="54" height="26" as="geometry" />
        </mxCell>
        <mxCell id="BibzhXY02vluXzdNH_Wg-72" value="Amount" style="shape=partialRectangle;top=0;left=0;right=0;bottom=0;align=left;verticalAlign=top;spacingTop=-2;fillColor=none;spacingLeft=64;spacingRight=4;overflow=hidden;rotatable=0;points=[[0,0.5],[1,0.5]];portConstraint=eastwest;dropTarget=0;" vertex="1" parent="BibzhXY02vluXzdNH_Wg-49">
          <mxGeometry y="312" width="190" height="26" as="geometry" />
        </mxCell>
        <mxCell id="BibzhXY02vluXzdNH_Wg-73" value="" style="shape=partialRectangle;top=0;left=0;bottom=0;fillColor=none;align=left;verticalAlign=middle;spacingLeft=4;spacingRight=4;overflow=hidden;rotatable=180;points=[];portConstraint=eastwest;part=1;" vertex="1" connectable="0" parent="BibzhXY02vluXzdNH_Wg-72">
          <mxGeometry width="54" height="26" as="geometry" />
        </mxCell>
        <mxCell id="BibzhXY02vluXzdNH_Wg-74" value="Favorit" style="shape=partialRectangle;top=0;left=0;right=0;bottom=0;align=left;verticalAlign=top;spacingTop=-2;fillColor=none;spacingLeft=64;spacingRight=4;overflow=hidden;rotatable=0;points=[[0,0.5],[1,0.5]];portConstraint=eastwest;dropTarget=0;" vertex="1" parent="BibzhXY02vluXzdNH_Wg-49">
          <mxGeometry y="338" width="190" height="26" as="geometry" />
        </mxCell>
        <mxCell id="BibzhXY02vluXzdNH_Wg-75" value="" style="shape=partialRectangle;top=0;left=0;bottom=0;fillColor=none;align=left;verticalAlign=middle;spacingLeft=4;spacingRight=4;overflow=hidden;rotatable=180;points=[];portConstraint=eastwest;part=1;" vertex="1" connectable="0" parent="BibzhXY02vluXzdNH_Wg-74">
          <mxGeometry width="54" height="26" as="geometry" />
        </mxCell>
        <mxCell id="BibzhXY02vluXzdNH_Wg-76" value="Notes" style="shape=partialRectangle;top=0;left=0;right=0;bottom=0;align=left;verticalAlign=top;spacingTop=-2;fillColor=none;spacingLeft=64;spacingRight=4;overflow=hidden;rotatable=0;points=[[0,0.5],[1,0.5]];portConstraint=eastwest;dropTarget=0;" vertex="1" parent="BibzhXY02vluXzdNH_Wg-49">
          <mxGeometry y="364" width="190" height="26" as="geometry" />
        </mxCell>
        <mxCell id="BibzhXY02vluXzdNH_Wg-77" value="" style="shape=partialRectangle;top=0;left=0;bottom=0;fillColor=none;align=left;verticalAlign=middle;spacingLeft=4;spacingRight=4;overflow=hidden;rotatable=180;points=[];portConstraint=eastwest;part=1;" vertex="1" connectable="0" parent="BibzhXY02vluXzdNH_Wg-76">
          <mxGeometry width="54" height="26" as="geometry" />
        </mxCell>
        <mxCell id="BibzhXY02vluXzdNH_Wg-78" value="IsCash" style="shape=partialRectangle;top=0;left=0;right=0;bottom=0;align=left;verticalAlign=top;spacingTop=-2;fillColor=none;spacingLeft=64;spacingRight=4;overflow=hidden;rotatable=0;points=[[0,0.5],[1,0.5]];portConstraint=eastwest;dropTarget=0;" vertex="1" parent="BibzhXY02vluXzdNH_Wg-49">
          <mxGeometry y="390" width="190" height="26" as="geometry" />
        </mxCell>
        <mxCell id="BibzhXY02vluXzdNH_Wg-79" value="" style="shape=partialRectangle;top=0;left=0;bottom=0;fillColor=none;align=left;verticalAlign=middle;spacingLeft=4;spacingRight=4;overflow=hidden;rotatable=180;points=[];portConstraint=eastwest;part=1;" vertex="1" connectable="0" parent="BibzhXY02vluXzdNH_Wg-78">
          <mxGeometry width="54" height="26" as="geometry" />
        </mxCell>
        <mxCell id="BibzhXY02vluXzdNH_Wg-80" value="Color" style="shape=partialRectangle;top=0;left=0;right=0;bottom=0;align=left;verticalAlign=top;spacingTop=-2;fillColor=none;spacingLeft=64;spacingRight=4;overflow=hidden;rotatable=0;points=[[0,0.5],[1,0.5]];portConstraint=eastwest;dropTarget=0;" vertex="1" parent="BibzhXY02vluXzdNH_Wg-49">
          <mxGeometry y="416" width="190" height="26" as="geometry" />
        </mxCell>
        <mxCell id="BibzhXY02vluXzdNH_Wg-81" value="" style="shape=partialRectangle;top=0;left=0;bottom=0;fillColor=none;align=left;verticalAlign=middle;spacingLeft=4;spacingRight=4;overflow=hidden;rotatable=180;points=[];portConstraint=eastwest;part=1;" vertex="1" connectable="0" parent="BibzhXY02vluXzdNH_Wg-80">
          <mxGeometry width="54" height="26" as="geometry" />
        </mxCell>
        <mxCell id="BibzhXY02vluXzdNH_Wg-82" value="UsedFormula" style="shape=partialRectangle;top=0;left=0;right=0;bottom=0;align=left;verticalAlign=top;spacingTop=-2;fillColor=none;spacingLeft=64;spacingRight=4;overflow=hidden;rotatable=0;points=[[0,0.5],[1,0.5]];portConstraint=eastwest;dropTarget=0;" vertex="1" parent="BibzhXY02vluXzdNH_Wg-49">
          <mxGeometry y="442" width="190" height="26" as="geometry" />
        </mxCell>
        <mxCell id="BibzhXY02vluXzdNH_Wg-83" value="" style="shape=partialRectangle;top=0;left=0;bottom=0;fillColor=none;align=left;verticalAlign=middle;spacingLeft=4;spacingRight=4;overflow=hidden;rotatable=180;points=[];portConstraint=eastwest;part=1;" vertex="1" connectable="0" parent="BibzhXY02vluXzdNH_Wg-82">
          <mxGeometry width="54" height="26" as="geometry" />
        </mxCell>
        <mxCell id="BibzhXY02vluXzdNH_Wg-84" value="TransactionType" style="shape=partialRectangle;top=0;left=0;right=0;bottom=0;align=left;verticalAlign=top;spacingTop=-2;fillColor=none;spacingLeft=64;spacingRight=4;overflow=hidden;rotatable=0;points=[[0,0.5],[1,0.5]];portConstraint=eastwest;dropTarget=0;" vertex="1" parent="BibzhXY02vluXzdNH_Wg-49">
          <mxGeometry y="468" width="190" height="26" as="geometry" />
        </mxCell>
        <mxCell id="BibzhXY02vluXzdNH_Wg-85" value="" style="shape=partialRectangle;top=0;left=0;bottom=0;fillColor=none;align=left;verticalAlign=middle;spacingLeft=4;spacingRight=4;overflow=hidden;rotatable=180;points=[];portConstraint=eastwest;part=1;" vertex="1" connectable="0" parent="BibzhXY02vluXzdNH_Wg-84">
          <mxGeometry width="54" height="26" as="geometry" />
        </mxCell>
        <mxCell id="BibzhXY02vluXzdNH_Wg-86" value="BookingType" style="shape=partialRectangle;top=0;left=0;right=0;bottom=0;align=left;verticalAlign=top;spacingTop=-2;fillColor=none;spacingLeft=64;spacingRight=4;overflow=hidden;rotatable=0;points=[[0,0.5],[1,0.5]];portConstraint=eastwest;dropTarget=0;" vertex="1" parent="BibzhXY02vluXzdNH_Wg-49">
          <mxGeometry y="494" width="190" height="26" as="geometry" />
        </mxCell>
        <mxCell id="BibzhXY02vluXzdNH_Wg-87" value="" style="shape=partialRectangle;top=0;left=0;bottom=0;fillColor=none;align=left;verticalAlign=middle;spacingLeft=4;spacingRight=4;overflow=hidden;rotatable=180;points=[];portConstraint=eastwest;part=1;" vertex="1" connectable="0" parent="BibzhXY02vluXzdNH_Wg-86">
          <mxGeometry width="54" height="26" as="geometry" />
        </mxCell>
        <mxCell id="BibzhXY02vluXzdNH_Wg-88" value="CounterAccountId" style="shape=partialRectangle;top=0;left=0;right=0;bottom=0;align=left;verticalAlign=top;spacingTop=-2;fillColor=none;spacingLeft=64;spacingRight=4;overflow=hidden;rotatable=0;points=[[0,0.5],[1,0.5]];portConstraint=eastwest;dropTarget=0;" vertex="1" parent="BibzhXY02vluXzdNH_Wg-49">
          <mxGeometry y="520" width="190" height="26" as="geometry" />
        </mxCell>
        <mxCell id="BibzhXY02vluXzdNH_Wg-89" value="" style="shape=partialRectangle;top=0;left=0;bottom=0;fillColor=none;align=left;verticalAlign=middle;spacingLeft=4;spacingRight=4;overflow=hidden;rotatable=180;points=[];portConstraint=eastwest;part=1;" vertex="1" connectable="0" parent="BibzhXY02vluXzdNH_Wg-88">
          <mxGeometry width="54" height="26" as="geometry" />
        </mxCell>
        <mxCell id="BibzhXY02vluXzdNH_Wg-90" value="InvestmentId" style="shape=partialRectangle;top=0;left=0;right=0;bottom=0;align=left;verticalAlign=top;spacingTop=-2;fillColor=none;spacingLeft=64;spacingRight=4;overflow=hidden;rotatable=0;points=[[0,0.5],[1,0.5]];portConstraint=eastwest;dropTarget=0;" vertex="1" parent="BibzhXY02vluXzdNH_Wg-49">
          <mxGeometry y="546" width="190" height="26" as="geometry" />
        </mxCell>
        <mxCell id="BibzhXY02vluXzdNH_Wg-91" value="" style="shape=partialRectangle;top=0;left=0;bottom=0;fillColor=none;align=left;verticalAlign=middle;spacingLeft=4;spacingRight=4;overflow=hidden;rotatable=180;points=[];portConstraint=eastwest;part=1;" vertex="1" connectable="0" parent="BibzhXY02vluXzdNH_Wg-90">
          <mxGeometry width="54" height="26" as="geometry" />
        </mxCell>
        <mxCell id="BibzhXY02vluXzdNH_Wg-92" value="CreatedBy" style="shape=partialRectangle;top=0;left=0;right=0;bottom=0;align=left;verticalAlign=top;spacingTop=-2;fillColor=none;spacingLeft=64;spacingRight=4;overflow=hidden;rotatable=0;points=[[0,0.5],[1,0.5]];portConstraint=eastwest;dropTarget=0;" vertex="1" parent="BibzhXY02vluXzdNH_Wg-49">
          <mxGeometry y="572" width="190" height="26" as="geometry" />
        </mxCell>
        <mxCell id="BibzhXY02vluXzdNH_Wg-93" value="" style="shape=partialRectangle;top=0;left=0;bottom=0;fillColor=none;align=left;verticalAlign=middle;spacingLeft=4;spacingRight=4;overflow=hidden;rotatable=180;points=[];portConstraint=eastwest;part=1;" vertex="1" connectable="0" parent="BibzhXY02vluXzdNH_Wg-92">
          <mxGeometry width="54" height="26" as="geometry" />
        </mxCell>
        <mxCell id="BibzhXY02vluXzdNH_Wg-94" value="CreatedOn" style="shape=partialRectangle;top=0;left=0;right=0;bottom=0;align=left;verticalAlign=top;spacingTop=-2;fillColor=none;spacingLeft=64;spacingRight=4;overflow=hidden;rotatable=0;points=[[0,0.5],[1,0.5]];portConstraint=eastwest;dropTarget=0;" vertex="1" parent="BibzhXY02vluXzdNH_Wg-49">
          <mxGeometry y="598" width="190" height="26" as="geometry" />
        </mxCell>
        <mxCell id="BibzhXY02vluXzdNH_Wg-95" value="" style="shape=partialRectangle;top=0;left=0;bottom=0;fillColor=none;align=left;verticalAlign=middle;spacingLeft=4;spacingRight=4;overflow=hidden;rotatable=180;points=[];portConstraint=eastwest;part=1;" vertex="1" connectable="0" parent="BibzhXY02vluXzdNH_Wg-94">
          <mxGeometry width="54" height="26" as="geometry" />
        </mxCell>
        <mxCell id="BibzhXY02vluXzdNH_Wg-96" value="LastModifiedBy" style="shape=partialRectangle;top=0;left=0;right=0;bottom=0;align=left;verticalAlign=top;spacingTop=-2;fillColor=none;spacingLeft=64;spacingRight=4;overflow=hidden;rotatable=0;points=[[0,0.5],[1,0.5]];portConstraint=eastwest;dropTarget=0;" vertex="1" parent="BibzhXY02vluXzdNH_Wg-49">
          <mxGeometry y="624" width="190" height="26" as="geometry" />
        </mxCell>
        <mxCell id="BibzhXY02vluXzdNH_Wg-97" value="" style="shape=partialRectangle;top=0;left=0;bottom=0;fillColor=none;align=left;verticalAlign=middle;spacingLeft=4;spacingRight=4;overflow=hidden;rotatable=180;points=[];portConstraint=eastwest;part=1;" vertex="1" connectable="0" parent="BibzhXY02vluXzdNH_Wg-96">
          <mxGeometry width="54" height="26" as="geometry" />
        </mxCell>
        <mxCell id="BibzhXY02vluXzdNH_Wg-98" value="LastModifiedOn" style="shape=partialRectangle;top=0;left=0;right=0;bottom=0;align=left;verticalAlign=top;spacingTop=-2;fillColor=none;spacingLeft=64;spacingRight=4;overflow=hidden;rotatable=0;points=[[0,0.5],[1,0.5]];portConstraint=eastwest;dropTarget=0;" vertex="1" parent="BibzhXY02vluXzdNH_Wg-49">
          <mxGeometry y="650" width="190" height="26" as="geometry" />
        </mxCell>
        <mxCell id="BibzhXY02vluXzdNH_Wg-99" value="" style="shape=partialRectangle;top=0;left=0;bottom=0;fillColor=none;align=left;verticalAlign=middle;spacingLeft=4;spacingRight=4;overflow=hidden;rotatable=180;points=[];portConstraint=eastwest;part=1;" vertex="1" connectable="0" parent="BibzhXY02vluXzdNH_Wg-98">
          <mxGeometry width="54" height="26" as="geometry" />
        </mxCell>
        <mxCell id="BibzhXY02vluXzdNH_Wg-100" style="edgeStyle=orthogonalEdgeStyle;rounded=0;orthogonalLoop=1;jettySize=auto;html=1;entryX=0;entryY=0.5;entryDx=0;entryDy=0;" edge="1" parent="1" source="BibzhXY02vluXzdNH_Wg-66" target="-jNMCPz4vEddlT_NG2kp-2">
          <mxGeometry relative="1" as="geometry">
            <Array as="points">
              <mxPoint x="230" y="807" />
              <mxPoint x="230" y="745" />
              <mxPoint x="60" y="745" />
              <mxPoint x="60" y="119" />
            </Array>
          </mxGeometry>
        </mxCell>
        <mxCell id="BibzhXY02vluXzdNH_Wg-101" style="edgeStyle=orthogonalEdgeStyle;rounded=0;orthogonalLoop=1;jettySize=auto;html=1;entryX=0;entryY=0.5;entryDx=0;entryDy=0;" edge="1" parent="1" source="BibzhXY02vluXzdNH_Wg-88" target="-jNMCPz4vEddlT_NG2kp-2">
          <mxGeometry relative="1" as="geometry">
            <mxPoint x="100" y="140" as="targetPoint" />
            <Array as="points">
              <mxPoint x="90" y="1093" />
              <mxPoint x="90" y="119" />
            </Array>
          </mxGeometry>
        </mxCell>
      </root>
    </mxGraphModel>
  </diagram>
</mxfile>
